<?xml version="1.0" encoding="UTF-8"?>
<svg id="Layer_2" data-name="Layer 2" xmlns="http://www.w3.org/2000/svg" viewBox="0 0 414.32 243.52">
  <defs>
    <style>
      .cls-1 {
        fill: #efea3c;
        stroke-width: 0px;
      }

      .cls-2 {
        fill: #fff;
        stroke: #000;
        stroke-miterlimit: 10;
      }
    </style>
  </defs>
  <g id="Layer_1-2" data-name="Layer 1">
    <g>
      <circle class="cls-1" cx="101.56" cy="101.56" r="101.56"/>
      <path class="cls-2" d="M362.76,142.46c-.71,0-1.42.02-2.13.05-7.54-29.01-34.26-50.46-66.08-50.46-5.81,0-11.45.72-16.83,2.06-14.53-24.59-41.58-41.11-72.55-41.11-39.31,0-72.3,26.63-81.39,62.57-2.26-.23-4.56-.36-6.88-.36-35.84,0-64.9,28.61-64.9,63.91s29.06,63.91,64.9,63.91h245.86c28.2,0,51.06-22.51,51.06-50.28s-22.86-50.28-51.06-50.28Z"/>
    </g>
  </g>
</svg>