<?xml version="1.0" encoding="UTF-8"?>
<svg id="Layer_2" data-name="Layer 2" xmlns="http://www.w3.org/2000/svg" viewBox="0 0 287.75 287.76">
  <defs>
    <style>
      .cls-1 {
        fill: #ffda00;
      }

      .cls-1, .cls-2 {
        stroke-width: 0px;
      }

      .cls-2 {
        fill: #f9bd00;
      }
    </style>
  </defs>
  <g id="Layer_1-2" data-name="Layer 1">
    <g>
      <circle class="cls-1" cx="143.87" cy="143.88" r="71.33"/>
      <g>
        <rect class="cls-2" x="144.75" y="0" width="14.03" height="37.51" rx="6.71" ry="6.71" transform="translate(1.34 -8.76) rotate(3.32)"/>
        <path class="cls-2" d="M96.56,48.33h0c-3.46,1.74-7.68.34-9.42-3.12l-10.54-20.98c-1.74-3.46-.34-7.68,3.12-9.42h0c3.46-1.74,7.68-.34,9.42,3.12l10.54,20.98c1.74,3.46.34,7.68-3.12,9.42Z"/>
        <path class="cls-2" d="M55.12,84.79h0c-2.13,3.24-6.48,4.14-9.72,2.01l-19.62-12.9c-3.24-2.13-4.14-6.48-2.01-9.72h0c2.13-3.24,6.48-4.14,9.72-2.01l19.62,12.9c3.24,2.13,4.14,6.48,2.01,9.72Z"/>
        <path class="cls-2" d="M37.46,137.09h0c-.22,3.87-3.54,6.82-7.41,6.6l-23.44-1.36c-3.87-.22-6.82-3.54-6.6-7.41H.01c.22-3.87,3.54-6.82,7.41-6.6l23.44,1.36c3.87.22,6.82,3.54,6.6,7.41Z"/>
        <path class="cls-2" d="M48.31,191.2h0c1.74,3.46.34,7.68-3.12,9.42l-20.98,10.54c-3.46,1.74-7.68.34-9.42-3.12h0c-1.74-3.46-.34-7.68,3.12-9.42l20.98-10.54c3.46-1.74,7.68-.34,9.42,3.12Z"/>
        <path class="cls-2" d="M84.77,232.65h0c3.24,2.13,4.14,6.48,2.01,9.72l-12.9,19.62c-2.13,3.24-6.48,4.14-9.72,2.01h0c-3.24-2.13-4.14-6.48-2.01-9.72l12.9-19.62c2.13-3.24,6.48-4.14,9.72-2.01Z"/>
        <path class="cls-2" d="M191.19,239.45h0c3.46-1.74,7.68-.34,9.42,3.12l10.54,20.98c1.74,3.46.34,7.68-3.12,9.42h0c-3.46,1.74-7.68.34-9.42-3.12l-10.54-20.98c-1.74-3.46-.34-7.68,3.12-9.42Z"/>
        <path class="cls-2" d="M232.63,202.99h0c2.13-3.24,6.48-4.14,9.72-2.01l19.62,12.9c3.24,2.13,4.14,6.48,2.01,9.72h0c-2.13,3.24-6.48,4.14-9.72,2.01l-19.62-12.9c-3.24-2.13-4.14-6.48-2.01-9.72Z"/>
        <path class="cls-2" d="M250.29,150.7h0c.22-3.87,3.54-6.82,7.41-6.6l23.44,1.36c3.87.22,6.82,3.54,6.6,7.41h0c-.22,3.87-3.54,6.82-7.41,6.6l-23.44-1.36c-3.87-.22-6.82-3.54-6.6-7.41Z"/>
        <path class="cls-2" d="M239.43,96.58h0c-1.74-3.46-.34-7.68,3.12-9.42l20.98-10.54c3.46-1.74,7.68-.34,9.42,3.12h0c1.74,3.46.34,7.68-3.12,9.42l-20.98,10.54c-3.46,1.74-7.68.34-9.42-3.12Z"/>
        <path class="cls-2" d="M202.97,55.14h0c-3.24-2.13-4.14-6.48-2.01-9.72l12.9-19.62c2.13-3.24,6.48-4.14,9.72-2.01h0c3.24,2.13,4.14,6.48,2.01,9.72l-12.9,19.62c-2.13,3.24-6.48,4.14-9.72,2.01Z"/>
        <path class="cls-2" d="M137.07,250.3h0c3.87.22,6.82,3.54,6.6,7.41l-1.36,23.44c-.22,3.87-3.54,6.82-7.41,6.6h0c-3.87-.22-6.82-3.54-6.6-7.41l1.36-23.44c.22-3.87,3.54-6.82,7.41-6.6Z"/>
      </g>
    </g>
  </g>
</svg>